{
    "asset" : {
        "generator" : "Khronos glTF Blender I/O v1.2.75",
        "version" : "2.0"
    },
    "scene" : 0,
    "scenes" : [
        {
            "name" : "Scene",
            "nodes" : [
                0
            ]
        }
    ],
    "nodes" : [
        {
            "mesh" : 0,
            "name" : "mesh0",
            "rotation" : [
                -0.7071068286895752,
                0,
                0,
                0.7071067094802856
            ]
        }
    ],
    "meshes" : [
        {
            "name" : "mesh0",
            "primitives" : [
                {
                    "attributes" : {
                        "POSITION" : 0,
                        "NORMAL" : 1
                    },
                    "indices" : 2
                }
            ]
        }
    ],
    "accessors" : [
        {
            "bufferView" : 0,
            "componentType" : 5126,
            "count" : 70577,
            "max" : [
                9097.75,
                -59.828125,
                2488.38427734375
            ],
            "min" : [
                -111.3125,
                -6707.15625,
                84.485595703125
            ],
            "type" : "VEC3"
        },
        {
            "bufferView" : 1,
            "componentType" : 5126,
            "count" : 70577,
            "type" : "VEC3"
        },
        {
            "bufferView" : 2,
            "componentType" : 5125,
            "count" : 70998,
            "type" : "SCALAR"
        }
    ],
    "bufferViews" : [
        {
            "buffer" : 0,
            "byteLength" : 846924,
            "byteOffset" : 0
        },
        {
            "buffer" : 0,
            "byteLength" : 846924,
            "byteOffset" : 846924
        },
        {
            "buffer" : 0,
            "byteLength" : 283992,
            "byteOffset" : 1693848
        }
    ],
    "buffers" : [
        {
            "byteLength" : 1977840,
            "uri" : "data:application/octet-stream;base64,"
        }
    ]
}
